<?xml version="1.0" encoding="UTF-8"?>
<svg version="1.1" xmlns="http://www.w3.org/2000/svg" width="512" height="512">
<path d="M0 0 C0.91568024 -0.00384115 1.83136049 -0.00768229 2.77478862 -0.01163983 C3.77710875 -0.01077335 4.77942888 -0.00990687 5.81212234 -0.00901413 C7.41361818 -0.01347081 7.41361818 -0.01347081 9.04746747 -0.01801753 C12.63709744 -0.02671247 16.22669409 -0.02821346 19.81633377 -0.02970505 C22.38519233 -0.03433265 24.95405019 -0.03935723 27.52290726 -0.04475021 C34.51058626 -0.05832712 41.49825952 -0.06435727 48.48594952 -0.06876087 C52.8499978 -0.07152441 57.21404388 -0.07576198 61.57809067 -0.08026505 C73.66342784 -0.09245694 85.74876325 -0.10275637 97.83410645 -0.10614014 C98.60746761 -0.1063597 99.38082878 -0.10657927 100.17762513 -0.10680549 C100.95282543 -0.10702377 101.72802573 -0.10724204 102.52671695 -0.10746694 C104.09753974 -0.1079104 105.66836254 -0.10835696 107.23918533 -0.10880661 C108.4079562 -0.10913875 108.4079562 -0.10913875 109.60033861 -0.10947761 C122.22383264 -0.11342503 134.84726892 -0.13087767 147.47074065 -0.15416613 C160.43441047 -0.17788895 173.39805133 -0.19034241 186.36174321 -0.19150805 C193.6390251 -0.1924243 200.91623175 -0.19816385 208.19349289 -0.21632767 C215.03888458 -0.23335347 221.8841313 -0.23497431 228.72953796 -0.22618866 C231.24177431 -0.22541713 233.75401828 -0.22977616 236.26623535 -0.23964691 C239.69657799 -0.25233442 243.12641222 -0.24650647 246.55675125 -0.23606491 C247.55014849 -0.24412132 248.54354574 -0.25217772 249.56704593 -0.26047826 C257.00493266 -0.20755317 262.40995791 1.09305053 268.68840408 5.31892776 C273.84631084 10.59405968 276.20118145 16.57308829 276.68840408 23.88142776 C276.34448137 38.22035941 263.05265776 47.66906463 253.66130447 57.08552933 C252.61199926 58.1411192 251.56287648 59.19689044 250.51391983 60.25282669 C247.10813279 63.67939402 243.69724963 67.10086484 240.28606033 70.52205276 C239.10342196 71.70874649 237.92081453 72.89547106 236.73823738 74.0822258 C231.18573502 79.65371135 225.6308708 85.22282863 220.07305819 90.78901696 C213.68612701 97.18573757 207.30758379 103.59067381 200.93594748 110.00262856 C195.98730171 114.98149912 191.03094254 119.95260694 186.06881517 124.91804099 C183.11485643 127.87433994 180.16423467 130.83379026 177.22177696 133.80154037 C174.45536647 136.59135308 171.67943967 139.37134303 168.89619637 142.14435959 C167.88257991 143.15748377 166.87231581 144.1739761 165.86587906 145.19423294 C154.67186103 156.53319641 142.77889068 164.08674488 126.43840408 164.63142776 C108.3773466 164.01001513 96.12565819 154.44219095 83.89592361 142.09065628 C82.78995812 140.98848332 81.68313625 139.88716913 80.57553482 138.78664017 C77.59767722 135.82262837 74.63238013 132.84634914 71.66974115 129.86713529 C68.55410783 126.73755183 65.42822176 123.61823641 62.30385208 120.4973793 C57.06367909 115.2598996 51.83160739 110.01443374 46.60441971 104.76399612 C40.57373575 98.70667333 34.53068014 92.66191412 28.4808017 86.62376648 C22.64054005 80.79430598 16.80882673 74.95636611 10.98103333 69.11444283 C8.50938469 66.63705817 6.03487348 64.16258694 3.55797577 61.69045067 C0.64041269 58.77768119 -2.26953732 55.85750732 -5.17392159 52.93159866 C-6.2367474 51.86323848 -7.30208557 50.79737045 -8.37018776 49.73428535 C-23.09091139 35.07402448 -23.09091139 35.07402448 -23.81159592 24.44392776 C-23.68247683 16.73982212 -21.03851499 10.4838714 -15.56159592 5.13142776 C-10.55941117 1.62427801 -6.06604276 0.00957081 0 0 Z " fill="#000000" transform="translate(129.56159591674805,173.86857223510742)"/>
</svg>
